<svg xmlns="http://www.w3.org/2000/svg" viewBox="0 0 96 96">
  <path
    d="M29.9,83.2c-.5-1.4-2-2.2-3.5-1.9-7.7,1.4-15.9-2.1-20-9.3-4.2-7.2-3.1-16,2-22,1-1.1,1-2.8,0-3.9-5.1-6-6.2-14.8-2-22,4.2-7.2,12.3-10.7,20-9.3,1.5.3,3-.5,3.5-1.9C32.6,5.3,39.7,0,48,0s15.4,5.3,18.1,12.8c.5,1.4,2,2.2,3.5,1.9,7.7-1.4,15.9,2.1,20,9.3,4.2,7.2,3.1,16-2,22-1,1.1-1,2.8,0,3.9,5.1,6,6.2,14.8,2,22-4.2,7.2-12.3,10.7-20,9.3-1.5-.3-3,.5-3.5,1.9-2.6,7.4-9.7,12.8-18.1,12.8-8.3,0-15.4-5.3-18.1-12.8Z"
    style="fill:#000;stroke-width:0" />
</svg>