<svg xmlns="http://www.w3.org/2000/svg" viewBox="0 0 100 100">
  <path
    d="M31.2,86.7c-.5-1.5-2.1-2.3-3.6-2-8.1,1.4-16.5-2.2-20.9-9.7-4.3-7.5-3.2-16.7,2.1-23,1-1.2,1-2.9,0-4.1-5.3-6.3-6.4-15.4-2.1-23,4.3-7.5,12.8-11.1,20.9-9.7,1.5.3,3.1-.6,3.6-2C33.9,5.5,41.3,0,50,0s16.1,5.5,18.8,13.3c.5,1.5,2.1,2.3,3.6,2,8.1-1.4,16.5,2.2,20.9,9.7,4.3,7.5,3.2,16.7-2.1,23-1,1.2-1,2.9,0,4.1,5.3,6.3,6.4,15.4,2.1,23-4.3,7.5-12.8,11.1-20.9,9.7-1.5-.3-3.1.6-3.6,2-2.8,7.7-10.2,13.3-18.8,13.3-8.7,0-16.1-5.5-18.8-13.3Z"
    style="fill:#000;stroke-width:0" />
</svg>