<?xml version="1.0" encoding="UTF-8"?>
<svg id="Layer_1" data-name="Layer 1" xmlns="http://www.w3.org/2000/svg" version="1.1"
  viewBox="0 0 100 100">
  <defs>
    <style>
      .cls-1 {
      fill: #000;
      stroke-width: 0px;
      }
    </style>
  </defs>
  <path
    d="M50,100c-8.7,0-16.1-5.5-18.8-13.3-.5-1.5-2.1-2.3-3.6-2-8.1,1.4-16.5-2.2-20.9-9.7-4.3-7.5-3.2-16.7,2.1-23,1-1.2,1-2.9,0-4.1-5.3-6.3-6.4-15.4-2.1-23,4.3-7.5,12.8-11.1,20.9-9.7,1.5.3,3.1-.6,3.6-2C33.9,5.5,41.3,0,50,0" />
  <path
    d="M50,0c8.7,0,16.1,5.5,18.8,13.3.5,1.5,2.1,2.3,3.6,2,8.1-1.4,16.5,2.2,20.9,9.7,4.3,7.5,3.2,16.7-2.1,23-1,1.2-1,2.9,0,4.1,5.3,6.3,6.4,15.4,2.1,23-4.3,7.5-12.8,11.1-20.9,9.7-1.5-.3-3.1.6-3.6,2-2.8,7.7-10.2,13.3-18.8,13.3" />
</svg>