<svg xmlns="http://www.w3.org/2000/svg" viewBox="0 0 100 100">
  <path
    d="M31.1,86.9c-.5-1.5-2.1-2.3-3.6-2.1-8.1,1.5-16.6-2.2-20.9-9.7-4.4-7.5-3.2-16.8,2.1-22.9,1-1.1,1-2.9,0-4.1-5.3-6.3-6.5-15.4-2.1-22.9,4.3-7.5,12.8-11.2,20.9-9.7,1.6.3,3.1-.5,3.6-2.1C33.9,5.5,41.2,0,50,0s16.1,5.5,18.9,13.2c.5,1.5,2.1,2.3,3.6,2.1,8.1-1.5,16.6,2.2,20.9,9.7,4.4,7.5,3.2,16.8-2.1,22.9-1,1.1-1,2.9,0,4.1,5.3,6.3,6.5,15.4,2.1,22.9-4.3,7.5-12.8,11.2-20.9,9.7-1.6-.3-3.1.5-3.6,2.1-2.7,7.7-10.2,13.2-18.9,13.2s-16.1-5.5-18.9-13.2h0Z" />
</svg>